<svg height="492pt" viewBox="0 -1 492 492" width="492pt" xmlns="http://www.w3.org/2000/svg" xmlns:xlink="http://www.w3.org/1999/xlink"><linearGradient id="a"><stop offset="0" stop-color="#00efd1"/><stop offset="1" stop-color="#00acea"/></linearGradient><linearGradient id="b" gradientUnits="userSpaceOnUse" x1="246" x2="246" xlink:href="#a" y1="27.001965" y2="463.459965"/><linearGradient id="c" gradientUnits="userSpaceOnUse" x1="246.05" x2="246.05" xlink:href="#a" y1="27.001965" y2="463.459965"/><path d="m484.546875 202.238281-46.101563-4.445312c-4.875-19.574219-12.785156-38.265625-23.445312-55.390625l29.234375-35.292969c2.621094-3.171875 2.410156-7.8125-.488281-10.734375l-48.605469-49.101562c-2.917969-2.945313-7.601563-3.175782-10.792969-.527344l-35.359375 29.3125c-17.1875-10.546875-35.878906-18.421875-55.429687-23.355469l-4.445313-45.667969c-.414062-4.0625-3.882812-7.1249998-7.964843-7.03124975h-69.699219c-4.078125-.09375005-7.546875 2.96484375-7.960938 7.02734375l-4.445312 45.769531c-19.597657 4.804688-38.320313 12.65625-55.484375 23.265625l-35.296875-29.300781c-3.175781-2.636719-7.835938-2.429687-10.757813.480469l-49.203125 49.101562c-2.925781 2.917969-3.144531 7.582032-.507812 10.765625l29.300781 35.328125c-10.542969 17.167969-18.429688 35.828125-23.402344 55.347656l-46.234375 4.449219c-4.144531.378907-7.351562 3.800781-7.457031 7.964844v69.597656c.101562 4.164063 3.308594 7.585938 7.453125 7.964844l46.101563 4.445313c4.875 19.574218 12.785156 38.265624 23.445312 55.390624l-29.234375 35.292969c-2.636719 3.1875-2.410156 7.855469.519531 10.769531l49.207032 49.101563c2.921874 2.917969 7.582031 3.132813 10.761718.5l35.355469-29.316406c17.191406 10.546875 35.878906 18.425781 55.433594 23.359375l4.445312 45.667968c.417969 4.058594 3.882813 7.117188 7.960938 7.027344h69.699219c4.082031.089844 7.546874-2.96875 7.964843-7.03125l4.445313-45.769531c19.597656-4.804687 38.320312-12.652344 55.480468-23.265625l35.300782 29.300781c3.175781 2.636719 7.832031 2.429688 10.757812-.480469l49.199219-49.097656c2.925781-2.917968 3.144531-7.582031.507813-10.765625l-29.300782-35.328125c10.542969-17.167968 18.433594-35.832031 23.402344-55.355468l45.640625-4.445313c4.144531-.375 7.351563-3.800781 7.453125-7.964844v-69.597656c-.101562-4.164063-3.308594-7.585937-7.453125-7.964844zm-8.546875 70.308594-44.101562 4.292969c-3.46875.332031-6.339844 2.835937-7.140626 6.226562-4.863281 21.640625-13.589843 42.226563-25.757812 60.769532-1.921875 2.929687-1.710938 6.769531.515625 9.472656l28.332031 34.183594-38.890625 38.800781-34.199219-28.351563c-2.714843-2.253906-6.582031-2.460937-9.523437-.515625-18.480469 12.242188-39.09375 20.910157-60.769531 25.550781-3.378906.644532-5.933594 3.429688-6.28125 6.847657l-4.296875 44.179687h-55.175781l-4.300782-44.175781c-.339844-3.449219-2.898437-6.269531-6.296875-6.949219-21.660156-4.769531-42.277343-13.425781-60.84375-25.558594-2.9375-1.875-6.753906-1.632812-9.429687.601563l-34.199219 28.363281-38.882813-38.796875 28.339844-34.179687c2.253906-2.722656 2.457032-6.597656.5-9.535156-12.257812-18.445313-20.953125-39.023438-25.628906-60.671876-.84375-3.425781-3.761719-5.9375-7.273438-6.257812l-44.695312-4.304688v-55.074218l44.695312-4.300782c3.472657-.324218 6.351563-2.832031 7.152344-6.226562 4.859375-21.636719 13.582032-42.222656 25.75-60.769531 1.921875-2.929688 1.710938-6.769531-.519531-9.472657l-28.328125-34.183593 38.890625-38.800781 34.199219 28.351562c2.714844 2.253906 6.582031 2.460938 9.523437.515625 18.476563-12.246094 39.089844-20.914063 60.765625-25.554687 3.378906-.644532 5.933594-3.429688 6.285156-6.847657l4.296876-44.171875h55.175781l4.300781 44.171875c.34375 3.449219 2.898438 6.269531 6.300781 6.949219 21.660157 4.769531 42.273438 13.425781 60.84375 25.558594 2.9375 1.875 6.753907 1.632812 9.429688-.601563l34.160156-28.335937 38.347656 38.734375-28.378906 34.222656c-2.25 2.71875-2.453125 6.59375-.5 9.535156 12.265625 18.441407 20.960937 39.015625 25.640625 60.664063.84375 3.425781 3.761719 5.9375 7.273438 6.257812l44.695312 4.300782zm0 0" fill="url(#b)"/><path d="m246.050781 87.226562c-87.121093 0-158 70.777344-158 157.777344 0 86.996094 70.875 157.773438 158 157.773438 87.121094 0 158-70.777344 158-157.773438 0-87-70.878906-157.777344-158-157.777344zm138.105469 124.777344h-94.96875c-2.933594-3.820312-6.359375-7.234375-10.1875-10.15625v-94.757812c51.964844 12.464844 92.570312 52.976562 105.15625 104.914062zm3.890625 33c0 5.679688-.34375 11.355469-1.023437 17h-89.347657c3.660157-11.039062 3.660157-22.964844 0-34h89.347657c.679687 5.640625 1.023437 11.316406 1.023437 17zm-142 38.296875c-21.144531-.039062-38.253906-17.207031-38.226563-38.347656.027344-21.144531 17.183594-38.265625 38.324219-38.25 21.144531.011719 38.277344 17.15625 38.277344 38.300781-.046875 21.160156-17.210937 38.292969-38.371094 38.296875zm16.953125-179.058593v89.171874c-11.042969-3.632812-22.964844-3.617187-34 .035157v-89.199219c11.292969-1.363281 22.707031-1.367188 34-.011719zm-50 2.871093v94.8125c-3.789062 2.90625-7.179688 6.292969-10.085938 10.078125h-94.96875c12.574219-51.898437 53.136719-92.398437 105.054688-104.890625zm-18.578125 154.890625h-89.34375c-1.367187-11.292968-1.367187-22.710937 0-34h89.34375c-3.65625 11.035156-3.65625 22.960938 0 34zm-86.476563 16h94.96875c2.90625 3.78125 6.296876 7.167969 10.085938 10.074219v94.8125c-51.917969-12.492187-92.480469-52.992187-105.054688-104.886719zm121.054688 107.75v-89.203125c11.035156 3.65625 22.957031 3.667969 34 .035157v89.175781c-11.292969 1.355469-22.707031 1.351562-34-.011719zm50-2.839844v-94.757812c3.828125-2.921875 7.253906-6.335938 10.1875-10.152344h94.96875c-12.585938 51.933594-53.191406 92.445313-105.15625 104.910156zm0 0" fill="url(#c)"/></svg>