<svg height="512" viewBox="0 0 512 512" width="512" xmlns="http://www.w3.org/2000/svg" xmlns:xlink="http://www.w3.org/1999/xlink"><linearGradient id="a" gradientUnits="userSpaceOnUse" x1="21.087" x2="534.153" y1="522.913" y2="9.847"><stop offset="0" stop-color="#003f8a"/><stop offset=".518" stop-color="#00d7df"/><stop offset="1" stop-color="#006df0"/></linearGradient><linearGradient id="b" x1="19.087" x2="532.153" xlink:href="#a" y1="520.913" y2="7.847"/><linearGradient id="c" x1="73.087" x2="586.153" xlink:href="#a" y1="574.913" y2="61.847"/><linearGradient id="d" x1="-16.913" x2="496.153" xlink:href="#a" y1="484.913" y2="-28.153"/><linearGradient id="e" x1="7.087" x2="520.153" xlink:href="#a" y1="508.913" y2="-4.153"/><linearGradient id="f" x1="-58.913" x2="454.153" xlink:href="#a" y1="442.913" y2="-70.153"/><g><path d="m256 376a88 88 0 1 0 -88-88 88.1 88.1 0 0 0 88 88zm0-160a72 72 0 1 1 -72 72 72.081 72.081 0 0 1 72-72z" fill="url(#a)"/><path d="m496 136h-24v-24a8 8 0 0 0 -8-8h-80a8 8 0 0 0 -8 8v24h-19.06l-29.78-59.58a8.011 8.011 0 0 0 -7.16-4.42h-128a8.011 8.011 0 0 0 -7.16 4.42l-29.78 59.58h-19.06v-24a8 8 0 0 0 -8-8h-8v-16a8 8 0 0 0 -8-8h-48a8 8 0 0 0 -8 8v16h-8a8 8 0 0 0 -8 8v24h-24a8 8 0 0 0 -8 8v288a8 8 0 0 0 8 8h480a8 8 0 0 0 8-8v-288a8 8 0 0 0 -8-8zm-104-16h64v16h-64zm-320-24h32v8h-32zm-16 24h64v16h-64zm432 304h-464v-64h136.06a119.88 119.88 0 0 0 191.88 0h136.06zm-336-136a104 104 0 1 1 104 104 104.112 104.112 0 0 1 -104-104zm336 56h-125.9a120 120 0 1 0 -212.2 0h-125.9v-192h136a8.011 8.011 0 0 0 7.16-4.42l29.78-59.58h118.12l29.78 59.58a8.011 8.011 0 0 0 7.16 4.42h136z" fill="url(#b)"/><path d="m424 232h48a8 8 0 0 0 8-8v-48a8 8 0 0 0 -8-8h-48a8 8 0 0 0 -8 8v48a8 8 0 0 0 8 8zm8-48h32v32h-32z" fill="url(#c)"/><path d="m88 392h-40a8 8 0 0 0 0 16h40a8 8 0 0 0 0-16z" fill="url(#d)"/><path d="m120 392h-8a8 8 0 0 0 0 16h8a8 8 0 0 0 0-16z" fill="url(#e)"/><path d="m208 152h96a8 8 0 0 0 8-8v-32a8 8 0 0 0 -8-8h-96a8 8 0 0 0 -8 8v32a8 8 0 0 0 8 8zm8-32h80v16h-80z" fill="url(#f)"/></g></svg>