<?xml version="1.0" encoding="iso-8859-1"?>
<!-- Generator: Adobe Illustrator 19.0.0, SVG Export Plug-In . SVG Version: 6.00 Build 0)  -->
<svg version="1.1" id="Capa_1" xmlns="http://www.w3.org/2000/svg" xmlns:xlink="http://www.w3.org/1999/xlink" x="0px" y="0px"
	 viewBox="0 0 512 512" style="enable-background:new 0 0 512 512;" xml:space="preserve">
<g>
	<g>
		<g>
			<path d="M112.693,444.565l-45.259-45.259l41.451-41.44c3.486-3.485,4.13-8.905,1.557-13.109
				c-9.206-15.047-16.004-31.441-20.149-48.587c-1.153-4.792-5.439-8.169-10.368-8.171H21.333v-64h58.592
				c4.925,0,9.211-3.372,10.368-8.16c4.148-17.148,10.946-33.545,20.149-48.597c2.566-4.202,1.923-9.615-1.557-13.099
				l-41.451-41.451l45.259-45.259l41.451,41.451c3.485,3.486,8.905,4.13,13.109,1.557c15.045-9.211,31.439-16.01,48.587-20.149
				c4.788-1.157,8.16-5.443,8.16-10.368V21.333h64v58.592c0,4.925,3.372,9.211,8.16,10.368
				c17.148,4.139,33.542,10.938,48.587,20.149c4.205,2.572,9.624,1.928,13.109-1.557l41.451-41.451l45.269,45.259l-41.451,41.451
				l15.083,15.083l48.992-48.992c4.164-4.165,4.164-10.917,0-15.083L406.848,44.8c-4.165-4.164-10.917-4.164-15.083,0L348.576,88
				c-12.43-6.878-25.594-12.338-39.243-16.277V10.667C309.333,4.776,304.558,0,298.667,0h-85.333
				c-5.891,0-10.667,4.776-10.667,10.667v61.056c-13.649,3.94-26.812,9.399-39.243,16.277l-43.189-43.2
				c-4.165-4.164-10.917-4.164-15.083,0L44.8,105.152c-4.164,4.165-4.164,10.917,0,15.083L88,163.424
				c-6.876,12.431-12.336,25.594-16.277,39.243H10.667C4.776,202.667,0,207.442,0,213.333v85.333
				c0,5.891,4.776,10.667,10.667,10.667h61.056c3.94,13.652,9.4,26.819,16.277,39.253l-43.2,43.179
				c-4.164,4.165-4.164,10.917,0,15.083l60.352,60.341c2,2.001,4.713,3.125,7.541,3.125c2.827,0.002,5.54-1.118,7.541-3.115
				l48.992-49.003l-15.083-15.083L112.693,444.565z"/>
			<path d="M256,170.667v-21.333C197.116,149.398,149.398,197.116,149.333,256h21.333C170.72,208.894,208.894,170.72,256,170.667z"
				/>
			<path d="M501.333,309.333h-40.032c-0.597-1.483-1.216-2.955-1.867-4.437l28.331-28.32c4.164-4.165,4.164-10.917,0-15.083
				l-45.259-45.259c-4.165-4.164-10.917-4.164-15.083,0l-28.32,28.331c-1.483-0.651-2.955-1.269-4.437-1.867v-40.032
				c0-5.891-4.776-10.667-10.667-10.667h-64c-5.891,0-10.667,4.776-10.667,10.667v40.032c-1.483,0.597-2.955,1.216-4.437,1.867
				l-28.32-28.331c-4.165-4.164-10.917-4.164-15.083,0l-45.259,45.259c-4.164,4.165-4.164,10.917,0,15.083l28.331,28.32
				c-0.651,1.483-1.269,2.955-1.867,4.437h-40.032c-5.891,0-10.667,4.776-10.667,10.667v64c0,5.891,4.776,10.667,10.667,10.667
				h40.032c0.597,1.483,1.216,2.955,1.867,4.437l-28.331,28.32c-4.164,4.165-4.164,10.917,0,15.083l45.259,45.259
				c4.165,4.164,10.917,4.164,15.083,0l28.32-28.331c1.483,0.661,2.955,1.269,4.437,1.856v40.043
				c0,5.891,4.776,10.667,10.667,10.667h64c5.891,0,10.667-4.776,10.667-10.667v-40.043c1.483-0.587,2.955-1.195,4.437-1.856
				l28.32,28.331c4.165,4.164,10.917,4.164,15.083,0l45.259-45.259c4.164-4.165,4.164-10.917,0-15.083l-28.331-28.32
				c0.651-1.483,1.269-2.955,1.867-4.437h40.032c5.891,0,10.667-4.776,10.667-10.667v-64
				C512,314.109,507.224,309.333,501.333,309.333z M490.667,373.323h-36.896c-4.659,0-8.778,3.023-10.176,7.467
				c-1.706,5.369-3.883,10.577-6.507,15.563c-2.158,4.13-1.385,9.184,1.909,12.48l26.133,26.133l-30.165,30.165l-26.133-26.133
				c-3.296-3.294-8.35-4.067-12.48-1.909c-4.985,2.617-10.189,4.794-15.552,6.507c-4.444,1.398-7.467,5.517-7.467,10.176v36.896
				h-42.667v-36.875c0-4.659-3.023-8.778-7.467-10.176c-5.363-1.713-10.567-3.89-15.552-6.507c-4.13-2.158-9.184-1.385-12.48,1.909
				l-26.133,26.133l-30.165-30.165l26.133-26.133c3.294-3.296,4.067-8.35,1.909-12.48c-2.624-4.985-4.801-10.193-6.507-15.563
				c-1.398-4.444-5.517-7.467-10.176-7.467h-36.896v-42.667h36.896c4.659,0,8.778-3.023,10.176-7.467
				c1.706-5.369,3.883-10.577,6.507-15.563c2.158-4.13,1.385-9.184-1.909-12.48l-26.144-26.133l30.176-30.176l26.133,26.144
				c3.301,3.296,8.36,4.065,12.491,1.899c4.981-2.616,10.181-4.789,15.541-6.496c4.444-1.398,7.467-5.517,7.467-10.176v-36.896
				h42.667v36.885c0,4.659,3.023,8.778,7.467,10.176c5.36,1.707,10.561,3.88,15.541,6.496c4.131,2.166,9.19,1.397,12.491-1.899
				l26.133-26.144l30.176,30.176l-26.144,26.133c-3.294,3.296-4.068,8.35-1.909,12.48c2.624,4.985,4.801,10.193,6.507,15.563
				c1.398,4.444,5.517,7.467,10.176,7.467h36.896V373.323z"/>
			<path d="M352,298.667c-29.455,0-53.333,23.878-53.333,53.333s23.878,53.333,53.333,53.333
				c29.441-0.035,53.298-23.893,53.333-53.333C405.333,322.545,381.455,298.667,352,298.667z M352,384c-17.673,0-32-14.327-32-32
				s14.327-32,32-32s32,14.327,32,32S369.673,384,352,384z"/>
		</g>
	</g>
</g>
<g>
</g>
<g>
</g>
<g>
</g>
<g>
</g>
<g>
</g>
<g>
</g>
<g>
</g>
<g>
</g>
<g>
</g>
<g>
</g>
<g>
</g>
<g>
</g>
<g>
</g>
<g>
</g>
<g>
</g>
</svg>
