<?xml version="1.0" encoding="iso-8859-1"?>
<!-- Generator: Adobe Illustrator 19.0.0, SVG Export Plug-In . SVG Version: 6.00 Build 0)  -->
<svg version="1.1" id="Capa_1" xmlns="http://www.w3.org/2000/svg" xmlns:xlink="http://www.w3.org/1999/xlink" x="0px" y="0px"
	 viewBox="0 0 512 512" style="enable-background:new 0 0 512 512;" xml:space="preserve">
<g>
	<g>
		<path d="M498.208,131.125l-128-128c-2-2-4.713-3.125-7.541-3.125h-320c-17.673,0-32,14.327-32,32v448c0,17.673,14.327,32,32,32
			h426.667c17.673,0,32-14.327,32-32V138.667C501.333,135.838,500.209,133.125,498.208,131.125z M480,480
			c0,5.891-4.776,10.667-10.667,10.667H42.667C36.776,490.667,32,485.891,32,480V32c0-5.891,4.776-10.667,10.667-10.667h315.584
			L480,143.083V480z"/>
	</g>
</g>
<g>
	<g>
		<path d="M352,10.667v138.667H96V10.667H74.667v138.667c0,11.782,9.551,21.333,21.333,21.333h256
			c11.782,0,21.333-9.551,21.333-21.333V10.667H352z"/>
	</g>
</g>
<g>
	<g>
		<rect x="288" y="42.667" width="21.333" height="85.333"/>
	</g>
</g>
<g>
	<g>
		<path d="M245.333,42.667H138.667c-5.891,0-10.667,4.776-10.667,10.667V96c0,5.891,4.776,10.667,10.667,10.667h106.667
			c5.891,0,10.667-4.776,10.667-10.667V53.333C256,47.442,251.224,42.667,245.333,42.667z M234.667,85.333h-85.333V64h85.333V85.333
			z"/>
	</g>
</g>
<g>
	<g>
		<path d="M117.333,490.667v-192h53.333v-21.333h-64C100.776,277.333,96,282.109,96,288v213.333c0,5.891,4.776,10.667,10.667,10.667
			h298.667v-21.333H117.333z"/>
	</g>
</g>
<g>
	<g>
		<path d="M303.083,330.667l52.8-52.8c4.164-4.165,4.164-10.917,0-15.083c-18.003-18.003-42.421-28.117-67.881-28.117
			c-53.019,0-96,42.98-96.001,95.999c0,53.019,42.98,96,95.999,96.001v0c25.475,0.07,49.919-10.055,67.883-28.117
			c4.164-4.165,4.164-10.917,0-15.083L303.083,330.667z M288.05,405.333c-41.237,0.014-74.678-33.404-74.692-74.642
			C213.345,289.455,246.763,256.014,288,256v0c16.128-0.045,31.83,5.172,44.725,14.859l-52.267,52.267
			c-4.164,4.165-4.164,10.917,0,15.083l52.267,52.267C319.826,400.116,304.155,405.328,288.05,405.333z"/>
	</g>
</g>
<g>
	<g>
		<rect x="384" y="320" width="21.333" height="21.333"/>
	</g>
</g>
<g>
	<g>
		<rect x="341.333" y="320" width="21.333" height="21.333"/>
	</g>
</g>
<g>
	<g>
		<rect x="426.667" y="320" width="21.333" height="21.333"/>
	</g>
</g>
<g>
	<g>
		<path d="M160,448v-32h-21.333v42.667c0,5.891,4.776,10.667,10.667,10.667H192V448H160z"/>
	</g>
</g>
<g>
</g>
<g>
</g>
<g>
</g>
<g>
</g>
<g>
</g>
<g>
</g>
<g>
</g>
<g>
</g>
<g>
</g>
<g>
</g>
<g>
</g>
<g>
</g>
<g>
</g>
<g>
</g>
<g>
</g>
</svg>
