<svg height="480pt" viewBox="0 0 480 480" width="480pt" xmlns="http://www.w3.org/2000/svg" xmlns:xlink="http://www.w3.org/1999/xlink"><linearGradient id="linear0" gradientUnits="userSpaceOnUse" x1="240" x2="240" y1="480" y2="0"><stop offset="0" stop-color="#12c2e9"/><stop offset=".056" stop-color="#19bfe9"/><stop offset=".137" stop-color="#2db6ea"/><stop offset=".235" stop-color="#4da7ea"/><stop offset=".344" stop-color="#7993eb"/><stop offset=".462" stop-color="#b279ed"/><stop offset=".497" stop-color="#c471ed"/><stop offset="1" stop-color="#f64f59"/></linearGradient><path d="m240 0c-132.546875 0-240 107.453125-240 240s107.453125 240 240 240 240-107.453125 240-240c-.148438-132.484375-107.515625-239.851562-240-240zm0 464c-123.710938 0-224-100.289062-224-224s100.289062-224 224-224 224 100.289062 224 224c-.140625 123.652344-100.347656 223.859375-224 224zm101.121094-262.144531c2.273437 1.804687 3.390625 4.703125 2.921875 7.566406-.472657 2.867187-2.460938 5.25-5.195313 6.230469-2.730468.980468-5.78125.402344-7.96875-1.507813l-82.878906-69.066406v206.921875c0 4.417969-3.582031 8-8 8s-8-3.582031-8-8v-206.921875l-82.878906 69.066406c-3.402344 2.699219-8.339844 2.191407-11.121094-1.144531-2.777344-3.339844-2.390625-8.285156.878906-11.144531l96-80c.234375-.191407.519532-.246094.761719-.414063.3125-.234375.640625-.449218.984375-.640625.222656-.105469.445312-.167969.679688-.257812.386718-.125.785156-.222657 1.191406-.285157.375-.089843.757812-.152343 1.144531-.1875.128906 0 .230469-.070312.359375-.070312s.222656.0625.351562.070312c.398438.035157.789063.097657 1.175782.195313.394531.0625.78125.15625 1.160156.277344.230469.074219.457031.160156.679688.257812.351562.191407.683593.40625 1 .648438.257812.121093.511718.257812.753906.40625zm0 0" fill="url(#linear0)"/></svg>